<svg width="152" height="201" xmlns="http://www.w3.org/2000/svg" xmlns:xlink="http://www.w3.org/1999/xlink" xml:space="preserve" overflow="hidden"><defs><clipPath id="clip0"><rect x="564" y="163" width="152" height="201"/></clipPath><linearGradient x1="48.2902" y1="167.514" x2="104.371" y2="167.514" gradientUnits="userSpaceOnUse" spreadMethod="pad" id="fill1"><stop offset="0" stop-color="#786851"/><stop offset="0.04" stop-color="#918471"/><stop offset="0.1" stop-color="#ABA192"/><stop offset="0.15" stop-color="#BDB5AA"/><stop offset="0.2" stop-color="#C8C2B8"/><stop offset="0.24" stop-color="#CCC6BD"/><stop offset="0.28" stop-color="#CFC9C0"/><stop offset="0.31" stop-color="#D7D2CA"/><stop offset="0.34" stop-color="#E5E2DB"/><stop offset="0.37" stop-color="#F6F5F0"/><stop offset="0.56" stop-color="#DBDCD2"/><stop offset="0.99" stop-color="#F6F5F0"/><stop offset="1" stop-color="#F6F5F0"/></linearGradient><linearGradient x1="50.5742" y1="175.078" x2="102.087" y2="175.078" gradientUnits="userSpaceOnUse" spreadMethod="pad" id="fill2"><stop offset="0" stop-color="#786851"/><stop offset="0.04" stop-color="#918471"/><stop offset="0.1" stop-color="#ABA192"/><stop offset="0.15" stop-color="#BDB5AA"/><stop offset="0.2" stop-color="#C8C2B8"/><stop offset="0.24" stop-color="#CCC6BD"/><stop offset="0.28" stop-color="#CFC9C0"/><stop offset="0.31" stop-color="#D7D2CA"/><stop offset="0.34" stop-color="#E5E2DB"/><stop offset="0.37" stop-color="#F6F5F0"/><stop offset="0.56" stop-color="#DBDCD2"/><stop offset="0.99" stop-color="#F6F5F0"/><stop offset="1" stop-color="#F6F5F0"/></linearGradient><linearGradient x1="64.0579" y1="55.0837" x2="100.003" y2="55.0837" gradientUnits="userSpaceOnUse" spreadMethod="pad" id="fill3"><stop offset="0" stop-color="#786851"/><stop offset="0.04" stop-color="#918471"/><stop offset="0.1" stop-color="#ABA192"/><stop offset="0.15" stop-color="#BDB5AA"/><stop offset="0.2" stop-color="#C8C2B8"/><stop offset="0.24" stop-color="#CCC6BD"/><stop offset="0.31" stop-color="#CFC9C0"/><stop offset="0.38" stop-color="#D7D2CA"/><stop offset="0.44" stop-color="#E5E2DB"/><stop offset="0.49" stop-color="#F6F5F0"/><stop offset="0.75" stop-color="#DBDCD2"/><stop offset="0.99" stop-color="#F6F5F0"/><stop offset="1" stop-color="#F6F5F0"/></linearGradient><linearGradient x1="66.5517" y1="49.7246" x2="100.811" y2="49.7246" gradientUnits="userSpaceOnUse" spreadMethod="pad" id="fill4"><stop offset="0" stop-color="#786851"/><stop offset="0.04" stop-color="#918471"/><stop offset="0.1" stop-color="#ABA192"/><stop offset="0.15" stop-color="#BDB5AA"/><stop offset="0.2" stop-color="#C8C2B8"/><stop offset="0.24" stop-color="#CCC6BD"/><stop offset="0.28" stop-color="#CFC9C0"/><stop offset="0.31" stop-color="#D7D2CA"/><stop offset="0.34" stop-color="#E5E2DB"/><stop offset="0.37" stop-color="#F6F5F0"/><stop offset="0.56" stop-color="#DBDCD2"/><stop offset="0.99" stop-color="#F6F5F0"/><stop offset="1" stop-color="#F6F5F0"/></linearGradient><linearGradient x1="85.8244" y1="85.7316" x2="124.06" y2="85.7316" gradientUnits="userSpaceOnUse" spreadMethod="pad" id="fill5"><stop offset="0" stop-color="#786851"/><stop offset="0.04" stop-color="#918471"/><stop offset="0.1" stop-color="#ABA192"/><stop offset="0.15" stop-color="#BDB5AA"/><stop offset="0.2" stop-color="#C8C2B8"/><stop offset="0.24" stop-color="#CCC6BD"/><stop offset="0.29" stop-color="#CFC9C0"/><stop offset="0.32" stop-color="#D7D2CA"/><stop offset="0.36" stop-color="#E5E2DB"/><stop offset="0.39" stop-color="#F6F5F0"/><stop offset="0.56" stop-color="#DBDCD2"/><stop offset="0.99" stop-color="#F6F5F0"/><stop offset="1" stop-color="#F6F5F0"/></linearGradient><linearGradient x1="86.4883" y1="78.4015" x2="135.69" y2="78.4015" gradientUnits="userSpaceOnUse" spreadMethod="pad" id="fill6"><stop offset="0" stop-color="#786851"/><stop offset="0.04" stop-color="#918471"/><stop offset="0.1" stop-color="#ABA192"/><stop offset="0.15" stop-color="#BDB5AA"/><stop offset="0.2" stop-color="#C8C2B8"/><stop offset="0.24" stop-color="#CCC6BD"/><stop offset="0.28" stop-color="#CFC9C0"/><stop offset="0.31" stop-color="#D7D2CA"/><stop offset="0.34" stop-color="#E5E2DB"/><stop offset="0.37" stop-color="#F6F5F0"/><stop offset="0.56" stop-color="#DBDCD2"/><stop offset="0.99" stop-color="#F6F5F0"/><stop offset="1" stop-color="#F6F5F0"/></linearGradient><linearGradient x1="74.7623" y1="153.467" x2="124.759" y2="153.467" gradientUnits="userSpaceOnUse" spreadMethod="pad" id="fill7"><stop offset="0" stop-color="#786851"/><stop offset="0.04" stop-color="#918471"/><stop offset="0.1" stop-color="#ABA192"/><stop offset="0.15" stop-color="#BDB5AA"/><stop offset="0.2" stop-color="#C8C2B8"/><stop offset="0.24" stop-color="#CCC6BD"/><stop offset="0.28" stop-color="#CFC9C0"/><stop offset="0.31" stop-color="#D7D2CA"/><stop offset="0.34" stop-color="#E5E2DB"/><stop offset="0.37" stop-color="#F6F5F0"/><stop offset="0.56" stop-color="#DBDCD2"/><stop offset="0.99" stop-color="#F6F5F0"/><stop offset="1" stop-color="#F6F5F0"/></linearGradient><radialGradient cx="287.68" cy="217.44" r="66.28" gradientUnits="userSpaceOnUse" spreadMethod="pad" id="fill8" gradientTransform="scale(0.343972 0.343972)"><stop offset="0" stop-color="#FFEF26"/><stop offset="0.02" stop-color="#FFEA21"/><stop offset="0.1" stop-color="#FED70F"/><stop offset="0.19" stop-color="#FDCC04"/><stop offset="0.28" stop-color="#FDC800"/><stop offset="0.67" stop-color="#F18F34"/><stop offset="0.89" stop-color="#E95F32"/><stop offset="1" stop-color="#E3312D"/></radialGradient><linearGradient x1="89.646" y1="157.457" x2="116.421" y2="157.457" gradientUnits="userSpaceOnUse" spreadMethod="pad" id="fill9"><stop offset="0" stop-color="#786851"/><stop offset="0.04" stop-color="#918471"/><stop offset="0.1" stop-color="#ABA192"/><stop offset="0.15" stop-color="#BDB5AA"/><stop offset="0.2" stop-color="#C8C2B8"/><stop offset="0.24" stop-color="#CCC6BD"/><stop offset="0.28" stop-color="#CFC9C0"/><stop offset="0.31" stop-color="#D7D2CA"/><stop offset="0.34" stop-color="#E5E2DB"/><stop offset="0.37" stop-color="#F6F5F0"/><stop offset="0.56" stop-color="#DBDCD2"/><stop offset="0.99" stop-color="#F6F5F0"/><stop offset="1" stop-color="#F6F5F0"/></linearGradient></defs><g clip-path="url(#clip0)" transform="translate(-564 -163)"><path d="M52.3388 163.421 100.323 163.421C102.561 163.421 104.375 165.235 104.375 167.473L104.375 167.473C104.375 169.753 102.527 171.601 100.247 171.601L52.4351 171.601C50.1556 171.601 48.3074 169.753 48.3074 167.473L48.3074 167.473C48.3074 165.235 50.1215 163.421 52.3594 163.421Z" stroke="#1D1D1B" stroke-width="0.354291" stroke-miterlimit="10" fill="url(#fill1)" transform="matrix(1.006 0 0 1 564.016 163)"/><path d="M98.5961 171.587C100.524 171.587 102.087 173.149 102.087 175.077L102.087 175.077C102.087 177.004 100.524 178.566 98.5961 178.566L54.0655 178.566C52.1373 178.566 50.5742 177.004 50.5742 175.077L50.5742 175.077C50.5742 173.149 52.1373 171.587 54.0655 171.587Z" stroke="#1D1D1B" stroke-width="0.354291" stroke-miterlimit="10" fill="url(#fill2)" transform="matrix(1.006 0 0 1 564.016 163)"/><path d="M85.1193 51.7196C86.9772 51.7196 88.4833 53.2258 88.4833 55.0837L88.4833 55.0871C88.4833 56.945 86.9772 58.4511 85.1193 58.4511L67.5389 58.4511C65.681 58.4511 64.1749 56.945 64.1749 55.0871L64.1749 55.0837C64.1749 53.2258 65.681 51.7196 67.5389 51.7196Z" stroke="#1D1D1B" stroke-width="0.354291" stroke-miterlimit="10" fill="url(#fill3)" transform="matrix(1.006 0 0 1 564.016 163)"/><path d="M84.6824 47.7295C85.6817 47.7295 86.4917 48.5396 86.4917 49.5388L86.4917 49.9103C86.4917 50.9096 85.6817 51.7196 84.6824 51.7196L67.9792 51.7196C66.9799 51.7196 66.1699 50.9096 66.1699 49.9103L66.1699 49.5388C66.1699 48.5396 66.9799 47.7295 67.9792 47.7295Z" stroke="#1D1D1B" stroke-width="0.354291" stroke-miterlimit="10" fill="url(#fill4)" transform="matrix(1.006 0 0 1 564.016 163)"/><path d="M109.83 90.2479 89.6907 90.2479C87.7438 90.2486 86.016 89.0003 85.4048 87.1522L85.4048 87.1522C84.4314 84.2284 83.8053 81.2118 86.8873 81.2118L112.634 81.2118C115.712 81.2118 115.086 84.2284 114.116 87.1522L114.116 87.1522C113.503 88.9993 111.776 90.2462 109.83 90.2479Z" stroke="#1D1D1B" stroke-width="0.354291" stroke-miterlimit="10" fill="url(#fill5)" transform="matrix(1.006 0 0 1 540.448 120.468)"/><path d="M90.3683 75.6119 109.149 75.6119C110.963 75.6123 112.573 76.7735 113.146 78.4944L113.146 78.4944C114.051 81.2187 113.593 81.1911 111.77 81.1911L87.761 81.1911C86.2097 81.1911 85.4736 81.2187 86.3851 78.4944L86.3851 78.4944C86.9537 76.7763 88.5583 75.615 90.3683 75.6119Z" stroke="#1D1D1B" stroke-width="0.354291" stroke-miterlimit="10" fill="url(#fill6)" transform="matrix(1.006 0 0 1 540.448 120.468)"/><path d="M81.3562 205.953C70.0568 205.953 76.7023 198.699 76.7023 198.699 95.6483 177.758 91.328 100.98 91.328 100.98L108.183 100.98C108.183 100.98 103.88 177.758 122.815 198.699 122.815 198.699 129.464 205.953 118.161 205.953Z" stroke="#1D1D1B" stroke-width="0.354291" stroke-miterlimit="10" fill="url(#fill7)" transform="matrix(1.006 0 0 1 540.448 120.468)"/><path d="M105.555 49.3393C105.555 49.3393 105.899 52.2218 104.475 54.468 103.353 56.2153 102.514 55.6443 102.366 55.1559 102.277 45.2254 95.7171 42.5287 95.7171 42.5287 95.7171 42.5287 95.8856 47.162 94.7402 50.2681 93.1923 54.4645 88.5797 56.5215 88.1463 62.6889 87.6509 69.675 97.3131 74.9343 97.3131 74.9343L98.29 74.9343C97.4163 74.3598 94.4547 72.1825 94.6336 69.4307 94.8193 66.5826 96.7799 65.647 97.4404 63.6967 97.9288 62.2589 97.8531 60.1229 97.8531 60.1229 97.8531 60.1229 100.646 61.3646 100.681 65.9532 100.746 66.1768 101.104 66.4416 101.578 65.6333 101.952 64.9037 102.112 64.0834 102.039 63.2668 102.039 63.2668 103.415 64.9144 103.209 68.7462 103.047 72.0312 100.98 74.3392 100.392 74.9377L101.3 74.9377C101.3 74.9377 107.859 69.5098 108.303 61.2098 108.747 52.9098 105.555 49.3393 105.555 49.3393Z" fill="url(#fill8)" transform="matrix(1.006 0 0 1 540.448 120.468)"/><path d="M109.521 205.953C101.21 199.93 103.539 108.953 103.539 108.953L95.9682 108.953C95.9682 108.953 98.2934 199.927 89.9831 205.953Z" stroke="#1D1D1B" stroke-width="0.354291" stroke-miterlimit="10" fill="url(#fill9)" transform="matrix(1.006 0 0 1 540.448 120.468)"/><path d="M81.5901 176.853C78.6389 178.625 75.1923 176.853 79.7705 173.458 79.7705 173.458 128.773 134.049 129.361 130.806 129.361 130.806 112.978 153.535 103.088 126.678 101.69 131.788 99.4454 136.627 96.4463 140.994 96.4463 140.994 84.6412 155.902 100.729 114.869 100.729 114.869 96.2571 125.973 88.2838 126.908 85.5045 127.232 82.2953 126.32 78.6973 123.283 77.9406 122.643 75.4296 119.774 74.5697 117.951 72.781 114.226 71.2882 108.32 78.7524 106.755 78.7524 106.755 84.2559 105.723 86.8357 114.522 88.3733 119.781 90.929 127.39 89.9315 140.065 89.8352 141.266 89.271 144.809 88.676 146.257 87.276 149.659 84.0908 155.482 78.5322 156.201 74.0606 156.779 69.8676 154.925 70.2081 142.484" stroke="#1D1D1B" stroke-width="1.41372" stroke-linecap="round" stroke-linejoin="round" fill="none" transform="matrix(1.006 0 0 1 540.448 120.468)"/><path d="M23.4279 240.939 25.7153 238.187C26.6819 239.487 27.7517 240.147 29.0244 240.147 30.6754 240.147 31.5388 239.153 31.5388 237.196L31.5388 228.741 25.2854 228.741 25.2854 225.436 35.6355 225.436 35.6355 236.983C35.6355 241.372 33.4203 243.532 29.2376 243.532 26.8298 243.532 24.7247 242.617 23.4279 240.939Z" fill="#004F91" transform="matrix(1.006 0 0 1 540.448 120.468)"/><path d="M64.9281 225.425 64.9281 243.226 61.5435 243.226 52.669 232.418 52.669 243.226 48.5998 243.226 48.5998 225.425 52.0086 225.425 60.859 236.233 60.859 225.425Z" fill="#004F91" transform="matrix(1.006 0 0 1 540.448 120.468)"/><path d="M76.9259 234.327C76.9259 228.961 81.0536 225.123 86.5881 225.123 89.6838 225.123 92.2361 226.241 93.9147 228.274L91.2695 230.716C90.1695 229.383 88.5263 228.616 86.7979 228.631 83.4648 228.631 81.1017 230.97 81.1017 234.327 81.1017 237.685 83.4648 240.024 86.7979 240.024 88.5329 240.04 90.1802 239.262 91.2695 237.912L93.9147 240.354C92.2361 242.418 89.6666 243.532 86.564 243.532 81.0467 243.532 76.9259 239.693 76.9259 234.327Z" fill="#004F91" transform="matrix(1.006 0 0 1 540.448 120.468)"/><path d="M116.95 239.404 108.695 239.404 107.12 243.219 102.885 243.219 110.821 225.419 114.887 225.419 122.846 243.219 118.526 243.219ZM115.654 236.278 112.823 229.471 109.999 236.285Z" fill="#004F91" transform="matrix(1.006 0 0 1 540.448 120.468)"/><path d="M132.206 241.468 133.602 238.373C135.33 239.567 137.377 240.214 139.477 240.23 141.916 240.23 142.917 239.415 142.917 238.324 142.917 234.991 132.567 237.292 132.567 230.668 132.567 227.641 135.009 225.126 140.069 225.126 142.308 225.126 144.595 225.659 146.26 226.702L144.991 229.828C143.495 228.945 141.796 228.464 140.058 228.432 137.616 228.432 136.674 229.347 136.674 230.465 136.674 233.746 147.024 231.497 147.024 238.032 147.024 241.007 144.558 243.536 139.474 243.536 136.629 243.532 133.781 242.693 132.206 241.468Z" fill="#004F91" transform="matrix(1.006 0 0 1 540.448 120.468)"/><path d="M170.067 243.226 166.627 238.269 162.843 238.269 162.843 243.226 158.716 243.226 158.716 225.425 166.421 225.425C171.174 225.425 174.15 227.892 174.15 231.885 174.15 234.554 172.801 236.515 170.486 237.506L174.48 243.226ZM166.2 228.779 162.843 228.779 162.843 234.971 166.2 234.971C168.718 234.971 169.984 233.801 169.984 231.875 169.984 229.949 168.718 228.783 166.2 228.783Z" fill="#004F91" transform="matrix(1.006 0 0 1 540.448 120.468)"/></g></svg>